<svg width="30" height="30" xmlns="http://www.w3.org/2000/svg">

 <g>
  <title>background</title>
  <rect fill="none" id="canvas_background" height="402" width="582" y="-1" x="-1"/>
 </g>
 <g>
  <title>Layer 1</title>
  <path fill="#ffffff" id="svg_1" d="m5.99023,9.20117c-0.501,0.024 -1.11865,0.34302 -1.47265,0.79102c-0.324,0.387 -0.60125,1.01451 -0.53125,1.60351c0.566,0.049 1.13333,-0.29447 1.48633,-0.73047c0.348,-0.449 0.57657,-1.05006 0.51757,-1.66406zm4.81055,1.19922l0,9l1.42383,0l0,-3l1.95117,0c1.79,0 3.07422,-1.245 3.07422,-3c0,-1.755 -1.26134,-3 -3.02734,-3l-3.42188,0zm1.42383,1.19922l1.65039,0c1.228,0 1.94922,0.66378 1.94922,1.80078c0,1.137 -0.71522,1.79883 -1.94922,1.79883l-1.65039,0l0,-3.59961zm-6.29883,0.30078c-0.825,0 -1.41578,0.44922 -1.80078,0.44922c-0.391,0 -0.97539,-0.44531 -1.65039,-0.44531c-0.825,0 -1.63259,0.51843 -2.05859,1.27343c-0.875,1.509 -0.22686,3.74366 0.61914,4.97266c0.415,0.608 0.91484,1.25 1.58984,1.25c0.619,-0.023 0.82722,-0.375 1.57422,-0.375c0.752,0 0.97539,0.375 1.65039,0.375c0.675,0 1.08405,-0.61856 1.49805,-1.22656c0.473,-0.69 0.66573,-1.36344 0.67773,-1.39844c-0.011,-0.011 -1.30831,-0.50886 -1.32031,-2.00586c-0.011,-1.252 1.02136,-1.84881 1.06836,-1.88281c-0.583,-0.866 -1.54844,-0.98633 -1.77344,-0.98633l-0.07422,0zm14.59375,0.90039c-1.493,0 -2.59572,0.83728 -2.63672,1.98828l1.26563,0c0.104,-0.547 0.62303,-0.90625 1.33203,-0.90625c0.86,0 1.3457,0.39319 1.3457,1.11719l0,0.5l-1.75781,0.09375c-1.633,0.097 -2.51563,0.75062 -2.51563,1.89063c0,1.15099 0.91175,1.91601 2.21875,1.91601c0.883,0 1.70322,-0.43976 2.07422,-1.13476l0.0293,0l0,1.0664l1.30078,0l0,-4.42187c-0.001,-1.284 -1.04725,-2.10938 -2.65625,-2.10938zm3.17969,0l2.40625,6.56836l-0.12891,0.40039c-0.217,0.677 -0.57026,0.9375 -1.19726,0.9375c-0.107,0 -0.30935,-0.01048 -0.40235,-0.02148l0,1.08203c0.094,0.021 0.42339,0.0332 0.52539,0.0332c1.384,0 2.03547,-0.52156 2.60547,-2.10156l2.49219,-6.89844l-1.44336,0l-1.67187,5.33008l-0.0293,0l-1.67188,-5.33008l-1.48437,0zm-1.87305,3.59961l-0.00586,0.52149c0,0.832 -0.71987,1.42382 -1.67187,1.42382c-0.749,0 -1.22656,-0.35253 -1.22656,-0.89453c0,-0.559 0.45989,-0.88355 1.33789,-0.93554l1.5664,-0.11524z"/>
 </g>
</svg>