<svg width="326.05" height="105.914" xmlns="http://www.w3.org/2000/svg" xmlns:xlink="http://www.w3.org/1999/xlink">
 <g>
  <title>background</title>
  <rect x="-1" y="-1" width="328.05" height="107.914" id="canvas_background" fill="none"/>
 </g>
 <g>
  <title>Layer 1</title>
  <g transform="matrix(2.07675,0,0,-2.07675,-11.153,92.77) " id="svg_1">
   <defs>
    <path id="a" d="m-84.525,-27.457l326.05,0l0,105.914l-326.05,0l0,-105.914z" fill="#ffffff"/>
   </defs>
   <clipPath id="b">
    <use xlink:href="#a" id="svg_2" fill="#ffffff" stroke="#none"/>
   </clipPath>
   <g clip-path="url(#b)" id="svg_3">
    <path d="m32.419,40.982c-1.674,1.908 -4.7,2.726 -8.571,2.726l-11.235,0a1.609,1.609 0 0 1 -1.59,-1.357l-4.676,-29.671a0.964,0.964 0 0 1 0.953,-1.114l6.936,0l1.742,11.049l-0.054,-0.346a1.604,1.604 0 0 0 1.583,1.357l3.296,0c6.475,0 11.545,2.63 13.026,10.238c0.044,0.225 0.082,0.444 0.115,0.658c0.44,2.812 -0.003,4.726 -1.524,6.459" fill="#ffffff" id="svg_4" stroke="#none"/>
    <path d="m117.331,26.863c-0.424,-2.784 -2.55,-2.784 -4.606,-2.784l-1.17,0l0.821,5.198c0.05,0.314 0.32,0.545 0.638,0.545l0.537,0c1.4,0 2.722,0 3.404,-0.797c0.407,-0.477 0.53,-1.185 0.376,-2.162m-0.895,7.264l-7.756,0a1.08,1.08 0 0 1 -1.066,-0.91l-3.134,-19.887a0.647,0.647 0 0 1 0.638,-0.747l3.98,0c0.371,0 0.687,0.27 0.745,0.636l0.89,5.64c0.082,0.523 0.534,0.91 1.064,0.91l2.454,0c5.11,0 8.058,2.471 8.828,7.372c0.347,2.142 0.014,3.826 -0.989,5.005c-1.103,1.296 -3.058,1.982 -5.653,1.982" fill="#ffffff" id="svg_5" stroke="#none"/>
    <path d="m62.011,26.863c-0.424,-2.784 -2.55,-2.784 -4.607,-2.784l-1.17,0l0.821,5.198c0.05,0.314 0.32,0.545 0.638,0.545l0.537,0c1.4,0 2.722,0 3.404,-0.797c0.408,-0.477 0.531,-1.185 0.377,-2.162m-0.895,7.264l-7.756,0c-0.53,0 -0.982,-0.386 -1.065,-0.91l-3.135,-19.887a0.646,0.646 0 0 1 0.638,-0.747l3.704,0c0.53,0 0.981,0.386 1.064,0.91l0.847,5.365c0.082,0.524 0.534,0.91 1.064,0.91l2.454,0c5.11,0 8.058,2.472 8.828,7.373c0.347,2.142 0.014,3.826 -0.989,5.005c-1.103,1.296 -3.058,1.982 -5.653,1.982m18.006,-14.405c-0.36,-2.122 -2.043,-3.547 -4.192,-3.547c-1.077,0 -1.94,0.347 -2.494,1.003c-0.55,0.65 -0.756,1.577 -0.582,2.608c0.334,2.104 2.046,3.574 4.162,3.574c1.055,0 1.91,-0.35 2.476,-1.012c0.569,-0.667 0.793,-1.599 0.63,-2.626m5.176,7.23l-3.714,0a0.647,0.647 0 0 1 -0.64,-0.547l-0.162,-1.038l-0.26,0.376c-0.804,1.167 -2.597,1.558 -4.387,1.558c-4.103,0 -7.608,-3.11 -8.29,-7.47c-0.355,-2.177 0.149,-4.256 1.383,-5.707c1.133,-1.333 2.75,-1.888 4.677,-1.888c3.308,0 5.142,2.124 5.142,2.124l-0.166,-1.032a0.646,0.646 0 0 1 0.639,-0.747l3.344,0c0.53,0 0.982,0.385 1.065,0.91l2.008,12.713a0.647,0.647 0 0 1 -0.64,0.747" fill="#ffffff" id="svg_6" stroke="#none"/>
    <path d="m134.443,19.723c-0.36,-2.122 -2.043,-3.547 -4.192,-3.547c-1.077,0 -1.94,0.347 -2.494,1.003c-0.55,0.65 -0.756,1.577 -0.582,2.608c0.334,2.104 2.045,3.574 4.162,3.574c1.055,0 1.91,-0.35 2.476,-1.012c0.569,-0.667 0.793,-1.599 0.63,-2.626m5.176,7.23l-3.714,0a0.647,0.647 0 0 1 -0.64,-0.547l-0.162,-1.038l-0.26,0.376c-0.804,1.167 -2.597,1.558 -4.387,1.558c-4.102,0 -7.607,-3.11 -8.29,-7.47c-0.355,-2.177 0.15,-4.256 1.384,-5.707c1.133,-1.333 2.75,-1.888 4.677,-1.888c3.309,0 5.143,2.124 5.143,2.124l-0.166,-1.032a0.644,0.644 0 0 1 0.637,-0.747l3.343,0c0.53,0 0.982,0.385 1.066,0.91l2.008,12.713a0.647,0.647 0 0 1 -0.64,0.747" fill="#ffffff" id="svg_7" stroke="#none"/>
    <path d="m104.08,26.952l-3.734,0c-0.357,0 -0.69,-0.177 -0.89,-0.473l-5.15,-7.584l-2.183,7.288a1.08,1.08 0 0 1 -1.033,0.77l-3.669,0a0.647,0.647 0 0 1 -0.612,-0.856l4.11,-12.066l-3.866,-5.455a0.647,0.647 0 0 1 0.528,-1.02l3.73,0c0.352,0 0.683,0.173 0.885,0.463l12.414,17.918a0.646,0.646 0 0 1 -0.53,1.015" fill="#ffffff" id="svg_8" stroke="#none"/>
    <path d="m143.996,33.58l-3.184,-20.251a0.647,0.647 0 0 1 0.639,-0.747l3.201,0c0.53,0 0.982,0.386 1.065,0.91l3.139,19.888a0.646,0.646 0 0 1 -0.639,0.747l-3.582,0a0.645,0.645 0 0 1 -0.639,-0.546" fill="#ffffff" id="svg_9" stroke="#none"/>
    <path d="m32.419,40.982c-1.674,1.908 -4.7,2.726 -8.571,2.726l-11.235,0a1.609,1.609 0 0 1 -1.59,-1.357l-4.676,-29.671a0.964,0.964 0 0 1 0.953,-1.114l6.936,0l1.742,11.049l-0.054,-0.346a1.604,1.604 0 0 0 1.583,1.357l3.296,0c6.475,0 11.545,2.63 13.026,10.238c0.044,0.225 0.082,0.444 0.115,0.658c0.44,2.812 -0.003,4.726 -1.524,6.459" fill="#ffffff" id="svg_10" stroke="#none"/>
    <path d="m17.849,34.485a1.408,1.408 0 0 0 1.389,1.187l8.808,0c1.043,0 2.016,-0.068 2.905,-0.21a12.206,12.206 0 0 0 1.44,-0.322a7.957,7.957 0 0 0 1.551,-0.618c0.442,2.813 -0.002,4.726 -1.523,6.46c-1.675,1.907 -4.7,2.725 -8.571,2.725l-11.236,0a1.609,1.609 0 0 1 -1.588,-1.357l-4.678,-29.668a0.964,0.964 0 0 1 0.952,-1.115l6.937,0l1.742,11.05l1.872,11.868z" fill="#ffffff" id="svg_11" stroke="#none"/>
    <path d="m33.943,34.523a18.294,18.294 0 0 0 -0.115,-0.658c-1.481,-7.607 -6.551,-10.238 -13.026,-10.238l-3.297,0a1.602,1.602 0 0 1 -1.582,-1.357l-1.688,-10.702l-0.48,-3.036a0.844,0.844 0 0 1 0.834,-0.976l5.847,0c0.692,0 1.28,0.504 1.389,1.187l0.057,0.298l1.102,6.984l0.07,0.386a1.407,1.407 0 0 0 1.39,1.187l0.875,0c5.664,0 10.099,2.3 11.395,8.956c0.54,2.78 0.26,5.103 -1.17,6.734a5.584,5.584 0 0 1 -1.601,1.235" fill="#dbdbdb" id="svg_12" stroke="#none"/>
    <path d="m32.392,35.14c-0.226,0.067 -0.459,0.127 -0.699,0.18c-0.24,0.053 -0.488,0.1 -0.742,0.14c-0.89,0.145 -1.862,0.213 -2.906,0.213l-8.807,0a1.404,1.404 0 0 1 -1.389,-1.188l-1.872,-11.87l-0.054,-0.345a1.602,1.602 0 0 0 1.582,1.357l3.297,0c6.475,0 11.545,2.63 13.026,10.238c0.044,0.225 0.081,0.443 0.115,0.658a7.998,7.998 0 0 1 -1.218,0.514c-0.109,0.036 -0.22,0.07 -0.333,0.104" fill="#ffffff" id="svg_13" stroke="#none"/>
   </g>
  </g>
 </g>
</svg>